<svg xmlns="http://www.w3.org/2000/svg" viewBox="0 0 512 512" id="Cube">
  <path fill="#ef006b" d="M411.59 129.53a35.063 35.063 0 0 1 3.43-5.85 35.983 35.983 0 1 1-3.43 5.85zM411.23 384.41a35.882 35.882 0 1 1 11.85 14.71A35.857 35.857 0 0 1 411.23 384.41z" class="color00efd1 svgShape"></path>
  <path fill="#f467a6" d="M444.04,180.62V334.13a35.892,35.892,0,0,0-32.81,50.28L289.61,440.37l-.37.15a35.93,35.93,0,0,0-33.51-22.58V267.17a35.9,35.9,0,0,0,32.86-50.71l.17-.08,122.67-56.81a35.91,35.91,0,0,0,32.61,21.05Z" class="colorf4b844 svgShape"></path>
  <path fill="#fe4195" d="M288.76,73.01l122.83,56.52a35.874,35.874,0,0,0-.16,30.04L288.76,216.38l-.17.08a35.911,35.911,0,0,0-65.45.12l-121.5-56.27-.21-.1a35.854,35.854,0,0,0-.16-31.32l.4-.19L223.13,72.82a35.892,35.892,0,0,0,61.85,6.38,36.505,36.505,0,0,0,3.63-6.25Z" class="colorfedb41 svgShape"></path>
  <path fill="#ef006b" d="M222.5 440.67a35.9 35.9 0 1 1 12.36 42.25A35.657 35.657 0 0 1 222.5 440.67zM223.13 72.82a35.9 35.9 0 1 1 65.48.13 36.505 36.505 0 0 1-3.63 6.25 35.892 35.892 0 0 1-61.85-6.38zM223.14 216.58a35.9 35.9 0 1 1 11.72 43.78A35.825 35.825 0 0 1 223.14 216.58z" class="color00efd1 svgShape"></path>
  <path fill="#ea0069" d="M255.73,267.17V417.94a35.908,35.908,0,0,0-33.23,22.73L100.72,384.63l-.21-.09a35.887,35.887,0,0,0-33.09-50.4V180.58a35.888,35.888,0,0,0,34.01-20.37l.21.1,121.5,56.27a35.9,35.9,0,0,0,32.59,50.59Z" class="color00acea svgShape"></path>
  <path fill="#ef006b" d="M67.42 180.58a35.888 35.888 0 1 1 30.72-14.83A35.812 35.812 0 0 1 67.42 180.58zM88.71 340.94a35.907 35.907 0 0 1 11.8 43.6 35.5 35.5 0 0 1-3.74 6.52 35.89 35.89 0 1 1-8.06-50.12z" class="color00efd1 svgShape"></path>
  <path fill="#630831" d="M479.663,170.438A43.891,43.891,0,1,0,408.532,119c-.058.079-.108.162-.166.242L298.509,68.69A44.072,44.072,0,0,0,281.617,22.6a43.871,43.871,0,0,0-68.344,45.95L104.365,118.654a44.208,44.208,0,0,0-9.595-9.506A43.958,43.958,0,0,0,43.134,180.3,49.367,49.367,0,0,0,59,187.548V326.935a46.065,46.065,0,0,0-27.1,17.376,43.97,43.97,0,0,0,71.335,51.428c.2-.283.405-.576.6-.863l109.04,50.174A43.924,43.924,0,0,0,255.8,497.74a44.564,44.564,0,0,0,7.058-.566,43.893,43.893,0,0,0,36.011-52.26l108.992-50.149a43.861,43.861,0,0,0,36.156,19.174,44.511,44.511,0,0,0,7.063-.567,43.895,43.895,0,0,0,18.734-78.915A46.023,46.023,0,0,0,452,326.841V187.883A44.126,44.126,0,0,0,479.663,170.438ZM408.516,344.314a44.091,44.091,0,0,0-7.105,35.805L292.8,430.1a43.34,43.34,0,0,0-11.05-11.829A45.558,45.558,0,0,0,264,410.635V274.455A43.8,43.8,0,0,0,298.539,220.7L408.2,169.9a43.869,43.869,0,0,0,10.2,10.4,45.58,45.58,0,0,0,17.6,7.575v139.02A43.906,43.906,0,0,0,408.516,344.314Zm-188.054,83.8c-.5.685-1.032,1.387-1.486,2.1L110.392,380.258a44.291,44.291,0,0,0-17.192-45.8A41.578,41.578,0,0,0,75,326.807V188.135a43.346,43.346,0,0,0,29.373-17.646l108.786,50.333a44.209,44.209,0,0,0,17.1,46.021A40.568,40.568,0,0,0,248,274.407V410.721A44.141,44.141,0,0,0,220.462,428.113Zm9.71-334.38A43.584,43.584,0,0,0,255.8,102.07a44.458,44.458,0,0,0,7.058-.567,43.6,43.6,0,0,0,28.61-17.628c.146-.2.279-.412.422-.617l109.722,50.488a43.717,43.717,0,0,0-.087,21.59L291.867,206.125a43.883,43.883,0,0,0-71.54-.572c-.164.226-.313.46-.473.689L111.442,156.033a44.382,44.382,0,0,0-.1-22.977L219.816,83.151A43.867,43.867,0,0,0,230.172,93.733ZM255.858,259h-.1a27.455,27.455,0,0,1-16.209-5.206A28.1,28.1,0,1,1,255.858,259Zm163-126.124a27.125,27.125,0,0,1,2.645-4.506A27.956,27.956,0,1,1,444.071,173h-.02a28.231,28.231,0,0,1-25.195-40.124ZM233.293,41.817a27.7,27.7,0,0,1,18.174-11.193,28.22,28.22,0,0,1,4.485-.36,27.91,27.91,0,0,1,25.373,39.381,28.607,28.607,0,0,1-2.828,4.868,27.892,27.892,0,0,1-48.062-4.955A28,28,0,0,1,233.293,41.817ZM46.441,128.37a27.917,27.917,0,0,1,38.947-6.261,27.57,27.57,0,0,1,8.7,10.308,27.9,27.9,0,0,1-26.313,40.171h0A27.9,27.9,0,0,1,46.441,128.37ZM93.2,381.3l-.015.035a27.588,27.588,0,0,1-2.895,5.042,27.916,27.916,0,1,1-45.213-32.757A27.516,27.516,0,0,1,67.485,342h.231a27.75,27.75,0,0,1,16.3,5.351A28.106,28.106,0,0,1,93.2,381.3Zm185.3,88.887A27.886,27.886,0,1,1,255.773,426h.155A27.838,27.838,0,0,1,278.5,470.183Zm188.219-83.808a27.883,27.883,0,0,1-48.156-5.17,27.993,27.993,0,0,1,25.5-39.2h.078a28.009,28.009,0,0,1,22.576,44.375Z" class="color083863 svgShape"></path>
</svg>
