<svg xmlns="http://www.w3.org/2000/svg" viewBox="0 0 512 512" id="Cherry">
  <path fill="#e31f5a" d="M432.26,333.96c29.16,48.39,11.67,106.7-36.73,135.86-46.88,28.24-104.7,18.18-134.77-25.93q-1.47-2.145-2.84-4.39c-21.16-34.56-24.09-71.03-5.7-99.71,6.44-10.03,15.49-19.11,27.28-26.82,1.16-.59,20.99,2.91,22.15,1.75,1.75-1.17,8.17-20.41,9.92-20.99C358.8,268.65,404.28,287.31,432.26,333.96Z" class="colorf43131 svgShape"></path>
  <path fill="#c43d66" d="M326.54 11.57c17.24 56.84-14.21 116.36-70.18 135.1q-1.53.525-3.09.99a109.137 109.137 0 0 1-4.72-31.72C248.55 68.88 279.18 25.36 326.54 11.57zM245.27 154.12q-4.14.315-8.23.31a109.2 109.2 0 0 1-108.5-97.11c59.75-6.72 114.14 36.66 120.87 96.41Q247.34 153.97 245.27 154.12z" class="color46c43d svgShape"></path>
  <path fill="#f14f80" d="M207.32,311.8c19.24,5.25,34.4,15.16,44.9,27.99-18.39,28.68-15.46,65.15,5.7,99.71q1.365,2.25,2.84,4.39l-.38.27c-19.24,42.57-65.89,64.14-114.28,53.65-54.81-12.25-90.38-62.39-78.14-117.2,11.66-53.65,49.56-86.3,103.21-76.97,1.65,0,12.05,14.43,14.26,16.64a1.434,1.434,0,0,0,.32.27C187.5,321.13,205.57,311.22,207.32,311.8Z" class="colorf1504f svgShape"></path>
  <path fill="#630823" d="M381.806,279.406c-22.756-8.065-47.288-6.051-71.133,5.793-.139-7.629-.642-16.408-1.786-26.054-3.362-28.33-13.105-69.39-40-108.74A117.022,117.022,0,0,0,334.2,9.248,8,8,0,0,0,324.3,3.889a114.876,114.876,0,0,0-60.966,42.654,118.278,118.278,0,0,0-22.255,58.6A117.491,117.491,0,0,0,127.646,49.37a8,8,0,0,0-7.056,8.845A117.166,117.166,0,0,0,237.04,162.43c.164,0,.328-.008.492-.009.625,37.394-6.483,98.543-51.471,145.9-7.089-9.049-9.78-12.257-13.975-12.64-27.874-4.74-53.166.966-73.175,16.51C79.81,327.028,66.4,350.1,60.152,378.866c-6.346,28.419-.977,57.114,15.117,80.8,15.764,23.2,40.3,39.517,69.136,45.961a122.777,122.777,0,0,0,26.034,2.837,110.8,110.8,0,0,0,47.12-10.335A101.237,101.237,0,0,0,261.9,458.421a102.134,102.134,0,0,0,58.477,33.429,106.509,106.509,0,0,0,19.589,1.8,115.915,115.915,0,0,0,59.7-16.983c25.4-15.3,43.52-38.534,51.027-65.419,7.656-27.417,3.546-56.333-11.564-81.408C424.108,304.815,404.289,287.374,381.806,279.406ZM276.233,56.014A98.912,98.912,0,0,1,320.96,21.873a99.983,99.983,0,0,1-9.148,67.832,101.266,101.266,0,0,1-52.98,47.557,100.912,100.912,0,0,1-2.282-21.322A101.971,101.971,0,0,1,276.233,56.014ZM137.759,64.675A101.514,101.514,0,0,1,240.19,146.381c-1.048.033-2.1.049-3.15.049A101.152,101.152,0,0,1,137.759,64.675ZM253.5,160.6a8,8,0,0,0,1.9-1.576c25.179,36.673,34.341,75.016,37.538,101.463a233.076,233.076,0,0,1,1.12,45.933c-1.7-.2-3.413-.417-4.693-.579-8.937-1.134-10.8-1.372-13.488,0a8.216,8.216,0,0,0-.75.435,103.4,103.4,0,0,0-23.649,20.963c-10.96-10.494-24.944-18.3-41-22.853C248.415,255.043,254.309,196.787,253.5,160.6ZM210.784,483.635c-19.134,8.944-40.916,11.141-62.939,6.368-24.8-5.543-45.875-19.51-59.342-39.329-13.586-19.994-18.109-44.257-12.726-68.365,5.455-25.1,16.849-44.976,32.95-57.484,15.986-12.418,36.362-17.116,59.038-13.636,1.773,1.978,4.912,5.99,6.75,8.339,2.72,3.476,4.189,5.34,5.253,6.4a8.927,8.927,0,0,0,2.848,1.978c.2.087.408.164.617.234,3.908,1.3,6.876-.1,16.71-4.731,2.257-1.062,5.408-2.546,7.289-3.321,14.042,4.162,26.059,11.236,35.142,20.656-16.294,29.907-13.247,67.046,8.706,102.9.124.2.259.41.385.614A85.458,85.458,0,0,1,210.784,483.635ZM435.275,406.95c-6.4,22.937-21.986,42.831-43.873,56.017-21.145,12.738-45.327,17.409-68.091,13.156a86.625,86.625,0,0,1-55.952-36.755c-.953-1.391-1.8-2.7-2.616-4.045-19.951-32.586-22.062-65.831-5.791-91.211h0a82.173,82.173,0,0,1,22.872-23.067c1.556.165,3.755.445,5.521.669,12.075,1.534,16.131,2.049,19.455-.861,2.286-1.862,3.577-4.86,6.959-13.191.934-2.3,2.37-5.838,3.278-7.757,20.124-10.2,40.633-12.077,59.424-5.418,18.938,6.711,35.861,21.784,48.947,43.6C438.229,359.366,441.733,383.821,435.275,406.95Z" class="color083863 svgShape"></path>
  <path fill="#630823" d="M323.628 413.631a38.185 38.185 0 0 1-16.3-24.862 39.329 39.329 0 0 1 6.2-29.339 8 8 0 0 0-13.256-8.96 55.235 55.235 0 0 0-8.673 41.214 54.065 54.065 0 0 0 23.072 35.2 8 8 0 1 0 8.957-13.258zM156.567 348.319a55.483 55.483 0 0 0-42.207 65.41 8 8 0 1 0 15.66-3.279c-4.375-20.89 9.125-41.763 30.093-46.529a8 8 0 1 0-3.546-15.6z" class="color083863 svgShape"></path>
</svg>
